<svg xmlns="http://www.w3.org/2000/svg" width="22" height="23" viewBox="0 0 22 23" fill="none">
  <path d="M11.75 21.7H5.34087C3.79549 21.7 2.56631 20.948 1.46266 19.8965C-0.796635 17.7441 2.9128 16.0239 4.32757 15.1815C6.72679 13.7529 9.59251 13.3575 12.25 13.9951" stroke="#FF0000" stroke-width="1.5" stroke-linecap="round" stroke-linejoin="round"/>
  <path d="M15.25 6.19995C15.25 8.68523 13.2353 10.7 10.75 10.7C8.26472 10.7 6.25 8.68523 6.25 6.19995C6.25 3.71467 8.26472 1.69995 10.75 1.69995C13.2353 1.69995 15.25 3.71467 15.25 6.19995Z" stroke="#FF0000" stroke-width="1.5"/>
  <path d="M14.8 15.75L19.7 20.65M20.75 18.2C20.75 16.267 19.183 14.7 17.25 14.7C15.317 14.7 13.75 16.267 13.75 18.2C13.75 20.1329 15.317 21.7 17.25 21.7C19.183 21.7 20.75 20.1329 20.75 18.2Z" stroke="#FF0000" stroke-width="1.5" stroke-linecap="round"/>
</svg>